<svg width="186" height="20" viewBox="0 0 186 20" fill="none" xmlns="http://www.w3.org/2000/svg">
<path d="M2.46 6.86H6.26C7.34 6.86 8.11333 6.67333 8.58 6.3C9.06 5.91333 9.3 5.34 9.3 4.58C9.3 4.07333 9.22 3.67333 9.06 3.38C8.9 3.08667 8.68 2.86 8.4 2.7C8.12 2.54 7.79333 2.44 7.42 2.4C7.06 2.34667 6.67333 2.32 6.26 2.32H2.46V6.86ZM0.56 0.719999H5.74C6.04667 0.719999 6.37333 0.726666 6.72 0.739999C7.08 0.739999 7.43333 0.759999 7.78 0.799999C8.12667 0.826666 8.44667 0.873333 8.74 0.94C9.04667 1.00667 9.30667 1.10667 9.52 1.24C9.98667 1.52 10.38 1.90667 10.7 2.4C11.0333 2.89333 11.2 3.5 11.2 4.22C11.2 4.98 11.0133 5.64 10.64 6.2C10.28 6.74667 9.76 7.15333 9.08 7.42V7.46C9.96 7.64667 10.6333 8.04667 11.1 8.66C11.5667 9.27333 11.8 10.02 11.8 10.9C11.8 11.42 11.7067 11.9267 11.52 12.42C11.3333 12.9133 11.0533 13.3533 10.68 13.74C10.32 14.1133 9.86667 14.42 9.32 14.66C8.78667 14.8867 8.16667 15 7.46 15H0.56V0.719999ZM2.46 13.4H7.22C8.06 13.4 8.71333 13.1733 9.18 12.72C9.66 12.2667 9.9 11.64 9.9 10.84C9.9 10.3733 9.81333 9.98667 9.64 9.68C9.46667 9.37333 9.23333 9.13333 8.94 8.96C8.66 8.77333 8.33333 8.64667 7.96 8.58C7.58667 8.5 7.2 8.46 6.8 8.46H2.46V13.4ZM15.2114 9.84C15.2114 10.4667 15.2914 11.0267 15.4514 11.52C15.6247 12 15.8581 12.4067 16.1514 12.74C16.4447 13.06 16.7847 13.3067 17.1714 13.48C17.5714 13.6533 17.9914 13.74 18.4314 13.74C18.8714 13.74 19.2847 13.6533 19.6714 13.48C20.0714 13.3067 20.4181 13.06 20.7114 12.74C21.0047 12.4067 21.2314 12 21.3914 11.52C21.5647 11.0267 21.6514 10.4667 21.6514 9.84C21.6514 9.21333 21.5647 8.66 21.3914 8.18C21.2314 7.68667 21.0047 7.27333 20.7114 6.94C20.4181 6.60667 20.0714 6.35333 19.6714 6.18C19.2847 6.00667 18.8714 5.92 18.4314 5.92C17.9914 5.92 17.5714 6.00667 17.1714 6.18C16.7847 6.35333 16.4447 6.60667 16.1514 6.94C15.8581 7.27333 15.6247 7.68667 15.4514 8.18C15.2914 8.66 15.2114 9.21333 15.2114 9.84ZM13.4114 9.84C13.4114 9.08 13.5181 8.37333 13.7314 7.72C13.9447 7.05333 14.2647 6.48 14.6914 6C15.1181 5.50667 15.6447 5.12 16.2714 4.84C16.8981 4.56 17.6181 4.42 18.4314 4.42C19.2581 4.42 19.9781 4.56 20.5914 4.84C21.2181 5.12 21.7447 5.50667 22.1714 6C22.5981 6.48 22.9181 7.05333 23.1314 7.72C23.3447 8.37333 23.4514 9.08 23.4514 9.84C23.4514 10.6 23.3447 11.3067 23.1314 11.96C22.9181 12.6133 22.5981 13.1867 22.1714 13.68C21.7447 14.16 21.2181 14.54 20.5914 14.82C19.9781 15.0867 19.2581 15.22 18.4314 15.22C17.6181 15.22 16.8981 15.0867 16.2714 14.82C15.6447 14.54 15.1181 14.16 14.6914 13.68C14.2647 13.1867 13.9447 12.6133 13.7314 11.96C13.5181 11.3067 13.4114 10.6 13.4114 9.84ZM26.6958 9.84C26.6958 10.4667 26.7758 11.0267 26.9358 11.52C27.1091 12 27.3424 12.4067 27.6358 12.74C27.9291 13.06 28.2691 13.3067 28.6558 13.48C29.0558 13.6533 29.4758 13.74 29.9158 13.74C30.3558 13.74 30.7691 13.6533 31.1558 13.48C31.5558 13.3067 31.9024 13.06 32.1958 12.74C32.4891 12.4067 32.7158 12 32.8758 11.52C33.0491 11.0267 33.1358 10.4667 33.1358 9.84C33.1358 9.21333 33.0491 8.66 32.8758 8.18C32.7158 7.68667 32.4891 7.27333 32.1958 6.94C31.9024 6.60667 31.5558 6.35333 31.1558 6.18C30.7691 6.00667 30.3558 5.92 29.9158 5.92C29.4758 5.92 29.0558 6.00667 28.6558 6.18C28.2691 6.35333 27.9291 6.60667 27.6358 6.94C27.3424 7.27333 27.1091 7.68667 26.9358 8.18C26.7758 8.66 26.6958 9.21333 26.6958 9.84ZM24.8958 9.84C24.8958 9.08 25.0024 8.37333 25.2158 7.72C25.4291 7.05333 25.7491 6.48 26.1758 6C26.6024 5.50667 27.1291 5.12 27.7558 4.84C28.3824 4.56 29.1024 4.42 29.9158 4.42C30.7424 4.42 31.4624 4.56 32.0758 4.84C32.7024 5.12 33.2291 5.50667 33.6558 6C34.0824 6.48 34.4024 7.05333 34.6158 7.72C34.8291 8.37333 34.9358 9.08 34.9358 9.84C34.9358 10.6 34.8291 11.3067 34.6158 11.96C34.4024 12.6133 34.0824 13.1867 33.6558 13.68C33.2291 14.16 32.7024 14.54 32.0758 14.82C31.4624 15.0867 30.7424 15.22 29.9158 15.22C29.1024 15.22 28.3824 15.0867 27.7558 14.82C27.1291 14.54 26.6024 14.16 26.1758 13.68C25.7491 13.1867 25.4291 12.6133 25.2158 11.96C25.0024 11.3067 24.8958 10.6 24.8958 9.84ZM39.3002 4.66H41.3602V6.16H39.3002V12.58C39.3002 12.78 39.3135 12.94 39.3402 13.06C39.3802 13.18 39.4468 13.2733 39.5402 13.34C39.6335 13.4067 39.7602 13.4533 39.9202 13.48C40.0935 13.4933 40.3135 13.5 40.5802 13.5H41.3602V15H40.0602C39.6202 15 39.2402 14.9733 38.9202 14.92C38.6135 14.8533 38.3602 14.74 38.1602 14.58C37.9735 14.42 37.8335 14.1933 37.7402 13.9C37.6468 13.6067 37.6002 13.22 37.6002 12.74V6.16H35.8402V4.66H37.6002V1.56H39.3002V4.66ZM44.2888 11.74C44.3021 12.1133 44.3888 12.4333 44.5488 12.7C44.7088 12.9533 44.9154 13.16 45.1688 13.32C45.4354 13.4667 45.7288 13.5733 46.0488 13.64C46.3821 13.7067 46.7221 13.74 47.0688 13.74C47.3354 13.74 47.6154 13.72 47.9088 13.68C48.2021 13.64 48.4688 13.5667 48.7088 13.46C48.9621 13.3533 49.1688 13.2 49.3288 13C49.4888 12.7867 49.5688 12.52 49.5688 12.2C49.5688 11.76 49.4021 11.4267 49.0688 11.2C48.7354 10.9733 48.3154 10.7933 47.8088 10.66C47.3154 10.5133 46.7754 10.3867 46.1888 10.28C45.6021 10.16 45.0554 10 44.5488 9.8C44.0554 9.58667 43.6421 9.29333 43.3088 8.92C42.9754 8.54667 42.8088 8.02667 42.8088 7.36C42.8088 6.84 42.9221 6.39333 43.1488 6.02C43.3888 5.64667 43.6888 5.34667 44.0488 5.12C44.4221 4.88 44.8354 4.70667 45.2888 4.6C45.7554 4.48 46.2154 4.42 46.6688 4.42C47.2554 4.42 47.7954 4.47333 48.2888 4.58C48.7821 4.67333 49.2154 4.84667 49.5888 5.1C49.9754 5.34 50.2821 5.67333 50.5088 6.1C50.7354 6.51333 50.8688 7.03333 50.9088 7.66H49.2088C49.1821 7.32667 49.0954 7.05333 48.9488 6.84C48.8021 6.61333 48.6154 6.43333 48.3888 6.3C48.1621 6.16667 47.9088 6.07333 47.6288 6.02C47.3621 5.95333 47.0888 5.92 46.8088 5.92C46.5554 5.92 46.2954 5.94 46.0288 5.98C45.7754 6.02 45.5421 6.09333 45.3288 6.2C45.1154 6.29333 44.9421 6.42667 44.8088 6.6C44.6754 6.76 44.6087 6.97333 44.6087 7.24C44.6087 7.53333 44.7087 7.78 44.9087 7.98C45.1221 8.16667 45.3888 8.32667 45.7088 8.46C46.0288 8.58 46.3888 8.68667 46.7888 8.78C47.1888 8.86 47.5888 8.94667 47.9888 9.04C48.4154 9.13333 48.8288 9.24667 49.2288 9.38C49.6421 9.51333 50.0021 9.69333 50.3088 9.92C50.6288 10.1333 50.8821 10.4067 51.0688 10.74C51.2688 11.0733 51.3688 11.4867 51.3688 11.98C51.3688 12.6067 51.2354 13.1267 50.9688 13.54C50.7154 13.9533 50.3754 14.2867 49.9488 14.54C49.5354 14.7933 49.0621 14.9667 48.5288 15.06C48.0088 15.1667 47.4888 15.22 46.9688 15.22C46.3954 15.22 45.8488 15.16 45.3288 15.04C44.8088 14.92 44.3488 14.7267 43.9488 14.46C43.5488 14.18 43.2288 13.82 42.9888 13.38C42.7488 12.9267 42.6154 12.38 42.5888 11.74H44.2888ZM55.6088 4.66H57.6688V6.16H55.6088V12.58C55.6088 12.78 55.6221 12.94 55.6488 13.06C55.6888 13.18 55.7554 13.2733 55.8488 13.34C55.9421 13.4067 56.0688 13.4533 56.2288 13.48C56.4021 13.4933 56.6221 13.5 56.8888 13.5H57.6688V15H56.3688C55.9288 15 55.5488 14.9733 55.2288 14.92C54.9221 14.8533 54.6688 14.74 54.4688 14.58C54.2821 14.42 54.1421 14.1933 54.0488 13.9C53.9554 13.6067 53.9088 13.22 53.9088 12.74V6.16H52.1488V4.66H53.9088V1.56H55.6088V4.66ZM59.4973 4.66H61.0973V6.84H61.1373C61.5507 6 62.0573 5.38 62.6573 4.98C63.2573 4.58 64.0173 4.39333 64.9373 4.42V6.22C64.2573 6.22 63.6773 6.31333 63.1973 6.5C62.7173 6.68667 62.3307 6.96 62.0373 7.32C61.744 7.68 61.5307 8.12 61.3973 8.64C61.264 9.14667 61.1973 9.73333 61.1973 10.4V15H59.4973V4.66ZM75.3775 14.96C75.0842 15.1333 74.6775 15.22 74.1575 15.22C73.7175 15.22 73.3642 15.1 73.0975 14.86C72.8442 14.6067 72.7175 14.2 72.7175 13.64C72.2508 14.2 71.7042 14.6067 71.0775 14.86C70.4642 15.1 69.7975 15.22 69.0775 15.22C68.6108 15.22 68.1642 15.1667 67.7375 15.06C67.3242 14.9533 66.9642 14.7867 66.6575 14.56C66.3508 14.3333 66.1042 14.04 65.9175 13.68C65.7442 13.3067 65.6575 12.86 65.6575 12.34C65.6575 11.7533 65.7575 11.2733 65.9575 10.9C66.1575 10.5267 66.4175 10.2267 66.7375 10C67.0708 9.76 67.4442 9.58 67.8575 9.46C68.2842 9.34 68.7175 9.24 69.1575 9.16C69.6242 9.06667 70.0642 9 70.4775 8.96C70.9042 8.90667 71.2775 8.84 71.5975 8.76C71.9175 8.66667 72.1708 8.54 72.3575 8.38C72.5442 8.20667 72.6375 7.96 72.6375 7.64C72.6375 7.26667 72.5642 6.96667 72.4175 6.74C72.2842 6.51333 72.1042 6.34 71.8775 6.22C71.6642 6.1 71.4175 6.02 71.1375 5.98C70.8708 5.94 70.6042 5.92 70.3375 5.92C69.6175 5.92 69.0175 6.06 68.5375 6.34C68.0575 6.60667 67.7975 7.12 67.7575 7.88H66.0575C66.0842 7.24 66.2175 6.7 66.4575 6.26C66.6975 5.82 67.0175 5.46667 67.4175 5.2C67.8175 4.92 68.2708 4.72 68.7775 4.6C69.2975 4.48 69.8508 4.42 70.4375 4.42C70.9042 4.42 71.3642 4.45333 71.8175 4.52C72.2842 4.58667 72.7042 4.72667 73.0775 4.94C73.4508 5.14 73.7508 5.42667 73.9775 5.8C74.2042 6.17333 74.3175 6.66 74.3175 7.26V12.58C74.3175 12.98 74.3375 13.2733 74.3775 13.46C74.4308 13.6467 74.5908 13.74 74.8575 13.74C75.0042 13.74 75.1775 13.7067 75.3775 13.64V14.96ZM72.6175 9.66C72.4042 9.82 72.1242 9.94 71.7775 10.02C71.4308 10.0867 71.0642 10.1467 70.6775 10.2C70.3042 10.24 69.9242 10.2933 69.5375 10.36C69.1508 10.4133 68.8042 10.5067 68.4975 10.64C68.1908 10.7733 67.9375 10.9667 67.7375 11.22C67.5508 11.46 67.4575 11.7933 67.4575 12.22C67.4575 12.5 67.5108 12.74 67.6175 12.94C67.7375 13.1267 67.8842 13.28 68.0575 13.4C68.2442 13.52 68.4575 13.6067 68.6975 13.66C68.9375 13.7133 69.1908 13.74 69.4575 13.74C70.0175 13.74 70.4975 13.6667 70.8975 13.52C71.2975 13.36 71.6242 13.1667 71.8775 12.94C72.1308 12.7 72.3175 12.4467 72.4375 12.18C72.5575 11.9 72.6175 11.64 72.6175 11.4V9.66ZM77.0197 4.66H78.7197V6.06H78.7597C79.0397 5.48667 79.4797 5.07333 80.0797 4.82C80.6797 4.55333 81.3397 4.42 82.0597 4.42C82.8597 4.42 83.553 4.56667 84.1397 4.86C84.7397 5.15333 85.233 5.55333 85.6197 6.06C86.0197 6.55333 86.3197 7.12667 86.5197 7.78C86.7197 8.43333 86.8197 9.12667 86.8197 9.86C86.8197 10.5933 86.7197 11.2867 86.5197 11.94C86.333 12.5933 86.0397 13.1667 85.6397 13.66C85.253 14.14 84.7597 14.52 84.1597 14.8C83.573 15.08 82.8864 15.22 82.0997 15.22C81.8464 15.22 81.5597 15.1933 81.2397 15.14C80.933 15.0867 80.6264 15 80.3197 14.88C80.013 14.76 79.7197 14.6 79.4397 14.4C79.173 14.1867 78.9464 13.9267 78.7597 13.62H78.7197V18.94H77.0197V4.66ZM85.0197 9.74C85.0197 9.26 84.953 8.79333 84.8197 8.34C84.6997 7.87333 84.5064 7.46 84.2397 7.1C83.9864 6.74 83.653 6.45333 83.2397 6.24C82.8397 6.02667 82.3664 5.92 81.8197 5.92C81.2464 5.92 80.7597 6.03333 80.3597 6.26C79.9597 6.48667 79.633 6.78667 79.3797 7.16C79.1264 7.52 78.9397 7.93333 78.8197 8.4C78.713 8.86667 78.6597 9.34 78.6597 9.82C78.6597 10.3267 78.7197 10.82 78.8397 11.3C78.9597 11.7667 79.1464 12.18 79.3997 12.54C79.6664 12.9 80.0064 13.1933 80.4197 13.42C80.833 13.6333 81.333 13.74 81.9197 13.74C82.5064 13.74 82.993 13.6267 83.3797 13.4C83.7797 13.1733 84.0997 12.8733 84.3397 12.5C84.5797 12.1267 84.753 11.7 84.8597 11.22C84.9664 10.74 85.0197 10.2467 85.0197 9.74ZM102.922 4.9C102.815 3.87333 102.442 3.13333 101.802 2.68C101.175 2.21333 100.368 1.98 99.3816 1.98C98.9816 1.98 98.5882 2.02 98.2016 2.1C97.8149 2.18 97.4682 2.31333 97.1616 2.5C96.8682 2.68667 96.6282 2.94 96.4416 3.26C96.2682 3.56667 96.1816 3.95333 96.1816 4.42C96.1816 4.86 96.3082 5.22 96.5616 5.5C96.8282 5.76667 97.1749 5.98667 97.6016 6.16C98.0416 6.33333 98.5349 6.48 99.0816 6.6C99.6282 6.70667 100.182 6.82667 100.742 6.96C101.315 7.09333 101.875 7.25333 102.422 7.44C102.968 7.61333 103.455 7.85333 103.882 8.16C104.322 8.46667 104.668 8.85333 104.922 9.32C105.188 9.78667 105.322 10.3733 105.322 11.08C105.322 11.84 105.148 12.4933 104.802 13.04C104.468 13.5733 104.035 14.0133 103.502 14.36C102.968 14.6933 102.368 14.9333 101.702 15.08C101.048 15.24 100.395 15.32 99.7416 15.32C98.9416 15.32 98.1816 15.22 97.4616 15.02C96.7549 14.82 96.1282 14.52 95.5816 14.12C95.0482 13.7067 94.6216 13.1867 94.3016 12.56C93.9949 11.92 93.8416 11.1667 93.8416 10.3H95.6416C95.6416 10.9 95.7549 11.42 95.9816 11.86C96.2216 12.2867 96.5282 12.64 96.9016 12.92C97.2882 13.2 97.7349 13.4067 98.2416 13.54C98.7482 13.6733 99.2682 13.74 99.8016 13.74C100.228 13.74 100.655 13.7 101.082 13.62C101.522 13.54 101.915 13.4067 102.262 13.22C102.608 13.02 102.888 12.7533 103.102 12.42C103.315 12.0867 103.422 11.66 103.422 11.14C103.422 10.6467 103.288 10.2467 103.022 9.94C102.768 9.63333 102.422 9.38667 101.982 9.2C101.555 9 101.068 8.84 100.522 8.72C99.9749 8.6 99.4149 8.48 98.8416 8.36C98.2816 8.22667 97.7282 8.08 97.1816 7.92C96.6349 7.74667 96.1416 7.52667 95.7016 7.26C95.2749 6.98 94.9282 6.62667 94.6616 6.2C94.4082 5.76 94.2816 5.21333 94.2816 4.56C94.2816 3.84 94.4282 3.22 94.7216 2.7C95.0149 2.16667 95.4016 1.73333 95.8816 1.4C96.3749 1.05333 96.9282 0.799999 97.5416 0.639999C98.1682 0.466666 98.8082 0.38 99.4616 0.38C100.195 0.38 100.875 0.466666 101.502 0.639999C102.128 0.813332 102.675 1.08667 103.142 1.46C103.622 1.83333 103.995 2.30667 104.262 2.88C104.542 3.44 104.695 4.11333 104.722 4.9H102.922ZM109.71 4.66H111.77V6.16H109.71V12.58C109.71 12.78 109.724 12.94 109.75 13.06C109.79 13.18 109.857 13.2733 109.95 13.34C110.044 13.4067 110.17 13.4533 110.33 13.48C110.504 13.4933 110.724 13.5 110.99 13.5H111.77V15H110.47C110.03 15 109.65 14.9733 109.33 14.92C109.024 14.8533 108.77 14.74 108.57 14.58C108.384 14.42 108.244 14.1933 108.15 13.9C108.057 13.6067 108.01 13.22 108.01 12.74V6.16H106.25V4.66H108.01V1.56H109.71V4.66ZM114.899 9.84C114.899 10.4667 114.979 11.0267 115.139 11.52C115.312 12 115.546 12.4067 115.839 12.74C116.132 13.06 116.472 13.3067 116.859 13.48C117.259 13.6533 117.679 13.74 118.119 13.74C118.559 13.74 118.972 13.6533 119.359 13.48C119.759 13.3067 120.106 13.06 120.399 12.74C120.692 12.4067 120.919 12 121.079 11.52C121.252 11.0267 121.339 10.4667 121.339 9.84C121.339 9.21333 121.252 8.66 121.079 8.18C120.919 7.68667 120.692 7.27333 120.399 6.94C120.106 6.60667 119.759 6.35333 119.359 6.18C118.972 6.00667 118.559 5.92 118.119 5.92C117.679 5.92 117.259 6.00667 116.859 6.18C116.472 6.35333 116.132 6.60667 115.839 6.94C115.546 7.27333 115.312 7.68667 115.139 8.18C114.979 8.66 114.899 9.21333 114.899 9.84ZM113.099 9.84C113.099 9.08 113.206 8.37333 113.419 7.72C113.632 7.05333 113.952 6.48 114.379 6C114.806 5.50667 115.332 5.12 115.959 4.84C116.586 4.56 117.306 4.42 118.119 4.42C118.946 4.42 119.666 4.56 120.279 4.84C120.906 5.12 121.432 5.50667 121.859 6C122.286 6.48 122.606 7.05333 122.819 7.72C123.032 8.37333 123.139 9.08 123.139 9.84C123.139 10.6 123.032 11.3067 122.819 11.96C122.606 12.6133 122.286 13.1867 121.859 13.68C121.432 14.16 120.906 14.54 120.279 14.82C119.666 15.0867 118.946 15.22 118.119 15.22C117.306 15.22 116.586 15.0867 115.959 14.82C115.332 14.54 114.806 14.16 114.379 13.68C113.952 13.1867 113.632 12.6133 113.419 11.96C113.206 11.3067 113.099 10.6 113.099 9.84ZM125.083 4.66H126.683V6.84H126.723C127.137 6 127.643 5.38 128.243 4.98C128.843 4.58 129.603 4.39333 130.523 4.42V6.22C129.843 6.22 129.263 6.31333 128.783 6.5C128.303 6.68667 127.917 6.96 127.623 7.32C127.33 7.68 127.117 8.12 126.983 8.64C126.85 9.14667 126.783 9.73333 126.783 10.4V15H125.083V4.66ZM135.863 16.38C135.663 16.8867 135.463 17.3133 135.263 17.66C135.077 18.0067 134.863 18.2867 134.623 18.5C134.397 18.7267 134.137 18.8867 133.843 18.98C133.563 19.0867 133.237 19.14 132.863 19.14C132.663 19.14 132.463 19.1267 132.263 19.1C132.063 19.0733 131.87 19.0267 131.683 18.96V17.4C131.83 17.4667 131.997 17.52 132.183 17.56C132.383 17.6133 132.55 17.64 132.683 17.64C133.03 17.64 133.317 17.5533 133.543 17.38C133.783 17.22 133.963 16.9867 134.083 16.68L134.783 14.94L130.683 4.66H132.603L135.623 13.12H135.663L138.563 4.66H140.363L135.863 16.38ZM141.863 0.719999H143.563V6.06H143.603C143.883 5.48667 144.323 5.07333 144.923 4.82C145.523 4.55333 146.183 4.42 146.903 4.42C147.703 4.42 148.397 4.56667 148.983 4.86C149.583 5.15333 150.077 5.55333 150.463 6.06C150.863 6.55333 151.163 7.12667 151.363 7.78C151.563 8.43333 151.663 9.12667 151.663 9.86C151.663 10.5933 151.563 11.2867 151.363 11.94C151.177 12.5933 150.883 13.1667 150.483 13.66C150.097 14.14 149.603 14.52 149.003 14.8C148.417 15.08 147.73 15.22 146.943 15.22C146.69 15.22 146.403 15.1933 146.083 15.14C145.777 15.0867 145.47 15 145.163 14.88C144.857 14.76 144.563 14.6 144.283 14.4C144.017 14.1867 143.79 13.9267 143.603 13.62H143.563V15H141.863V0.719999ZM149.863 9.74C149.863 9.26 149.797 8.79333 149.663 8.34C149.543 7.87333 149.35 7.46 149.083 7.1C148.83 6.74 148.497 6.45333 148.083 6.24C147.683 6.02667 147.21 5.92 146.663 5.92C146.09 5.92 145.603 6.03333 145.203 6.26C144.803 6.48667 144.477 6.78667 144.223 7.16C143.97 7.52 143.783 7.93333 143.663 8.4C143.557 8.86667 143.503 9.34 143.503 9.82C143.503 10.3267 143.563 10.82 143.683 11.3C143.803 11.7667 143.99 12.18 144.243 12.54C144.51 12.9 144.85 13.1933 145.263 13.42C145.677 13.6333 146.177 13.74 146.763 13.74C147.35 13.74 147.837 13.6267 148.223 13.4C148.623 13.1733 148.943 12.8733 149.183 12.5C149.423 12.1267 149.597 11.7 149.703 11.22C149.81 10.74 149.863 10.2467 149.863 9.74ZM154.899 9.84C154.899 10.4667 154.979 11.0267 155.139 11.52C155.312 12 155.546 12.4067 155.839 12.74C156.132 13.06 156.472 13.3067 156.859 13.48C157.259 13.6533 157.679 13.74 158.119 13.74C158.559 13.74 158.972 13.6533 159.359 13.48C159.759 13.3067 160.106 13.06 160.399 12.74C160.692 12.4067 160.919 12 161.079 11.52C161.252 11.0267 161.339 10.4667 161.339 9.84C161.339 9.21333 161.252 8.66 161.079 8.18C160.919 7.68667 160.692 7.27333 160.399 6.94C160.106 6.60667 159.759 6.35333 159.359 6.18C158.972 6.00667 158.559 5.92 158.119 5.92C157.679 5.92 157.259 6.00667 156.859 6.18C156.472 6.35333 156.132 6.60667 155.839 6.94C155.546 7.27333 155.312 7.68667 155.139 8.18C154.979 8.66 154.899 9.21333 154.899 9.84ZM153.099 9.84C153.099 9.08 153.206 8.37333 153.419 7.72C153.632 7.05333 153.952 6.48 154.379 6C154.806 5.50667 155.332 5.12 155.959 4.84C156.586 4.56 157.306 4.42 158.119 4.42C158.946 4.42 159.666 4.56 160.279 4.84C160.906 5.12 161.432 5.50667 161.859 6C162.286 6.48 162.606 7.05333 162.819 7.72C163.032 8.37333 163.139 9.08 163.139 9.84C163.139 10.6 163.032 11.3067 162.819 11.96C162.606 12.6133 162.286 13.1867 161.859 13.68C161.432 14.16 160.906 14.54 160.279 14.82C159.666 15.0867 158.946 15.22 158.119 15.22C157.306 15.22 156.586 15.0867 155.959 14.82C155.332 14.54 154.806 14.16 154.379 13.68C153.952 13.1867 153.632 12.6133 153.419 11.96C153.206 11.3067 153.099 10.6 153.099 9.84ZM166.383 9.84C166.383 10.4667 166.463 11.0267 166.623 11.52C166.797 12 167.03 12.4067 167.323 12.74C167.617 13.06 167.957 13.3067 168.343 13.48C168.743 13.6533 169.163 13.74 169.603 13.74C170.043 13.74 170.457 13.6533 170.843 13.48C171.243 13.3067 171.59 13.06 171.883 12.74C172.177 12.4067 172.403 12 172.563 11.52C172.737 11.0267 172.823 10.4667 172.823 9.84C172.823 9.21333 172.737 8.66 172.563 8.18C172.403 7.68667 172.177 7.27333 171.883 6.94C171.59 6.60667 171.243 6.35333 170.843 6.18C170.457 6.00667 170.043 5.92 169.603 5.92C169.163 5.92 168.743 6.00667 168.343 6.18C167.957 6.35333 167.617 6.60667 167.323 6.94C167.03 7.27333 166.797 7.68667 166.623 8.18C166.463 8.66 166.383 9.21333 166.383 9.84ZM164.583 9.84C164.583 9.08 164.69 8.37333 164.903 7.72C165.117 7.05333 165.437 6.48 165.863 6C166.29 5.50667 166.817 5.12 167.443 4.84C168.07 4.56 168.79 4.42 169.603 4.42C170.43 4.42 171.15 4.56 171.763 4.84C172.39 5.12 172.917 5.50667 173.343 6C173.77 6.48 174.09 7.05333 174.303 7.72C174.517 8.37333 174.623 9.08 174.623 9.84C174.623 10.6 174.517 11.3067 174.303 11.96C174.09 12.6133 173.77 13.1867 173.343 13.68C172.917 14.16 172.39 14.54 171.763 14.82C171.15 15.0867 170.43 15.22 169.603 15.22C168.79 15.22 168.07 15.0867 167.443 14.82C166.817 14.54 166.29 14.16 165.863 13.68C165.437 13.1867 165.117 12.6133 164.903 11.96C164.69 11.3067 164.583 10.6 164.583 9.84ZM176.728 0.719999H178.428V9.18L183.148 4.66H185.428L181.328 8.42L185.728 15H183.568L180.028 9.6L178.428 11.08V15H176.728V0.719999Z" fill="white"/>
</svg>
